<svg width="39" height="38" viewBox="0 0 39 38" fill="none" xmlns="http://www.w3.org/2000/svg">
<g filter="url(#filter0_d)">
<path d="M29.9083 4.25024C27.2031 1.54644 23.6072 0.0576172 19.7813 0.0576172C19.781 0.0576172 19.7801 0.0576172 19.7799 0.0576172C17.8877 0.0578424 16.0436 0.424024 14.2994 1.14625C12.555 1.86848 10.9922 2.91275 9.65398 4.25024C6.949 6.95382 5.4594 10.5485 5.4594 14.372C5.4594 16.6522 6.00986 18.9182 7.05287 20.9372L4.64554 27.8109C4.47587 28.2957 4.59596 28.8227 4.95963 29.186C5.21402 29.4404 5.54885 29.5756 5.89314 29.5756C6.04073 29.5756 6.18989 29.5508 6.33545 29.4999L13.2127 27.094C15.2327 28.1365 17.4999 28.6867 19.7813 28.6867C23.6068 28.6867 27.2031 27.1976 29.9083 24.4941C32.6133 21.7905 34.1031 18.1958 34.1031 14.3723C34.1031 10.5485 32.6135 6.95382 29.9083 4.25024ZM28.6835 23.2698C26.3057 25.6467 23.144 26.9553 19.7813 26.9553C17.7241 26.9553 15.6804 26.4468 13.8711 25.4843C13.543 25.31 13.1552 25.28 12.8071 25.4019L6.55896 27.5875L8.74593 21.3426C8.86783 20.9942 8.83764 20.6066 8.66324 20.2789C7.70044 18.471 7.19144 16.4284 7.19144 14.372C7.19144 11.0111 8.50101 7.85103 10.8788 5.47445C13.2564 3.0981 16.4177 1.78921 19.7801 1.78876H19.7813C23.1442 1.78876 26.3057 3.09765 28.6835 5.47445C31.0615 7.85103 32.3711 11.0109 32.3711 14.372C32.3711 17.7332 31.0615 20.8933 28.6835 23.2698Z" fill="white"/>
<path d="M25.1038 15.6507C24.445 14.9922 23.3729 14.9922 22.7141 15.6507L21.9935 16.3709C20.2042 15.3965 18.7563 13.9493 17.7811 12.161L18.5017 11.4407C19.1607 10.7823 19.1607 9.71073 18.5017 9.05223L16.5599 7.11143C15.901 6.45293 14.8289 6.45293 14.1701 7.11143L12.6167 8.66398C11.7269 9.55331 11.6826 11.0822 12.4917 12.9692C13.1942 14.6076 14.4799 16.4083 16.1119 18.0395C17.7439 19.6706 19.5456 20.9556 21.1848 21.6578C22.0818 22.042 22.8977 22.2337 23.6027 22.2337C24.3817 22.2337 25.0252 21.9997 25.4923 21.5328L27.0456 19.98V19.9803C27.3649 19.6611 27.5407 19.2371 27.5407 18.786C27.5407 18.3347 27.3649 17.9106 27.0456 17.5917L25.1038 15.6507ZM24.2674 20.3086C24.0135 20.5624 23.2325 20.6514 21.8673 20.0667C20.4257 19.4492 18.8167 18.2944 17.3368 16.8152C15.8569 15.3361 14.7016 13.7281 14.0838 12.2873C13.4986 10.9228 13.5876 10.142 13.8416 9.88819L15.3652 8.36536L17.2471 10.2465L16.3451 11.1482C15.9373 11.5558 15.8388 12.174 16.1004 12.6866C17.2863 15.0107 19.1423 16.8657 21.4676 18.0509C21.9806 18.3124 22.5992 18.2142 23.007 17.8064L23.9089 16.9049L25.7911 18.786L24.2674 20.3086Z" fill="white"/>
</g>
<defs>
<filter id="filter0_d" x="0.569824" y="0.0576172" width="37.5333" height="37.5179" filterUnits="userSpaceOnUse" color-interpolation-filters="sRGB">
<feFlood flood-opacity="0" result="BackgroundImageFix"/>
<feColorMatrix in="SourceAlpha" type="matrix" values="0 0 0 0 0 0 0 0 0 0 0 0 0 0 0 0 0 0 127 0"/>
<feOffset dy="4"/>
<feGaussianBlur stdDeviation="2"/>
<feColorMatrix type="matrix" values="0 0 0 0 0 0 0 0 0 0 0 0 0 0 0 0 0 0 0.25 0"/>
<feBlend mode="normal" in2="BackgroundImageFix" result="effect1_dropShadow"/>
<feBlend mode="normal" in="SourceGraphic" in2="effect1_dropShadow" result="shape"/>
</filter>
</defs>
</svg>
